<svg xmlns="http://www.w3.org/2000/svg" width="256" height="256" viewBox="0 0 100 100"><rect width="100" height="100" rx="50" fill="#058686"></rect><path fill="#fff" d="M41.39 29.79L41.39 50.76L39.64 47.85L39.64 29.79L41.39 29.79ZM44.91 29.79L44.91 56.52L43.15 53.56L43.15 29.79L44.91 29.79ZM48.43 29.79L48.43 62.35L46.67 59.38L46.67 29.79L48.43 29.79ZM23.23 70.21L23.23 49.24L24.99 52.15L24.99 70.21L23.23 70.21ZM19.71 70.21L19.71 43.48L21.47 46.44L21.47 70.21L19.71 70.21ZM16.20 70.21L16.20 37.65L17.96 40.63L17.96 70.21L16.20 70.21ZM41.66 70.21L16.81 29.79L18.86 29.79L43.71 70.21L41.66 70.21ZM45.76 70.21L20.96 29.79L23.03 29.79L47.86 70.21L45.76 70.21ZM49.87 70.21L25.09 29.79L27.14 29.79L50.18 67.36L50.18 29.79L51.94 29.79L51.94 70.21Q51.94 70.21 49.87 70.21L49.87 70.21ZM37.54 70.21L14.44 32.64L14.44 70.21L12.68 70.21L12.68 29.79Q12.68 29.79 14.78 29.79L14.78 29.79L39.56 70.21L37.54 70.21ZM72.91 45.61L72.91 45.61L69.96 45.61Q68.08 45.61 67.25 44.64Q66.42 43.68 66.42 42.09L66.42 42.09Q66.42 38.57 71.67 38.57L71.67 38.57Q76.60 38.57 79.09 40.04L79.09 40.04L77.67 41.11Q75.96 40.33 71.67 40.33L71.67 40.33Q69.57 40.33 68.85 40.80Q68.13 41.26 68.13 42.09Q68.13 42.92 68.52 43.38Q68.91 43.85 69.96 43.85L69.96 43.85L72.99 43.85Q76.28 43.85 78.93 44.97Q81.58 46.09 83.29 48.03Q85.00 49.98 85.90 52.50Q86.80 55.03 86.80 57.91L86.80 57.91Q86.80 60.25 86.15 62.35Q85.49 64.45 84.16 66.21Q82.82 67.97 80.96 69.25Q79.09 70.53 76.51 71.25Q73.94 71.97 70.94 71.97L70.94 71.97Q66.22 71.97 62.11 70.54Q58.00 69.12 55.26 66.55L55.26 66.55L56.68 65.50Q59.17 67.75 62.92 68.98Q66.66 70.21 70.94 70.21L70.94 70.21Q74.28 70.21 76.98 69.25Q79.68 68.29 81.42 66.60Q83.17 64.92 84.11 62.70Q85.05 60.47 85.05 57.91L85.05 57.91Q85.05 54.52 83.68 51.77Q82.31 49.02 79.52 47.31Q76.72 45.61 72.91 45.61ZM69.96 47.36L69.96 47.36L72.74 47.36Q77.70 47.36 80.49 50.39Q83.29 53.42 83.29 57.91L83.29 57.91Q83.29 62.48 80.04 65.47Q76.79 68.46 70.94 68.46L70.94 68.46Q67.03 68.46 63.64 67.38Q60.24 66.31 58.00 64.36L58.00 64.36L59.36 63.26Q61.36 64.89 64.40 65.80Q67.44 66.70 70.94 66.70L70.94 66.70Q76.09 66.70 78.81 64.23Q81.53 61.77 81.53 57.91L81.53 57.91Q81.53 54.10 79.25 51.61Q76.97 49.12 72.72 49.12L72.72 49.12L69.96 49.12Q66.39 49.12 64.61 47.17Q62.83 45.21 62.83 42.09Q62.83 38.96 65.04 37.01Q67.25 35.06 71.67 35.06L71.67 35.06Q74.77 35.06 77.43 35.78Q80.09 36.50 81.82 37.84L81.82 37.84L80.43 38.92Q77.38 36.82 71.67 36.82L71.67 36.82Q67.98 36.82 66.28 38.27Q64.59 39.72 64.59 42.09L64.59 42.09Q64.59 44.48 65.84 45.92Q67.10 47.36 69.96 47.36ZM69.96 50.88L69.96 50.88L72.64 50.88Q76.21 50.88 77.99 52.86Q79.77 54.83 79.77 57.91L79.77 57.91Q79.77 61.04 77.56 62.99Q75.35 64.94 70.94 64.94L70.94 64.94Q67.83 64.94 65.16 64.22Q62.49 63.50 60.75 62.16L60.75 62.16L62.15 61.08Q65.20 63.18 70.94 63.18L70.94 63.18Q74.62 63.18 76.32 61.73Q78.02 60.28 78.02 57.91Q78.02 55.54 76.75 54.09Q75.48 52.64 72.62 52.64L72.62 52.64L69.96 52.64Q64.95 52.64 62.13 49.65Q59.31 46.66 59.31 42.09Q59.31 37.52 62.56 34.53Q65.81 31.54 71.67 31.54L71.67 31.54Q75.57 31.54 78.96 32.62Q82.34 33.69 84.58 35.64L84.58 35.64L83.22 36.74Q81.21 35.11 78.19 34.20Q75.16 33.30 71.67 33.30L71.67 33.30Q66.52 33.30 63.79 35.77Q61.07 38.23 61.07 42.09L61.07 42.09Q61.07 45.92 63.37 48.40Q65.66 50.88 69.96 50.88ZM69.96 54.39L69.96 54.39L72.64 54.39Q74.52 54.39 75.35 55.37Q76.18 56.35 76.18 57.91L76.18 57.91Q76.18 61.43 70.94 61.43L70.94 61.43Q65.98 61.43 63.49 59.96L63.49 59.96L64.90 58.89Q66.61 59.67 70.94 59.67L70.94 59.67Q73.03 59.67 73.75 59.20Q74.48 58.74 74.48 57.91L74.48 57.91Q74.48 57.10 74.07 56.63Q73.67 56.15 72.60 56.15L72.60 56.15L69.96 56.15Q66.59 56.15 63.87 55.05Q61.15 53.96 59.40 52.03Q57.65 50.10 56.73 47.56Q55.80 45.02 55.80 42.09L55.80 42.09Q55.80 39.75 56.46 37.65Q57.12 35.55 58.45 33.79Q59.78 32.03 61.65 30.75Q63.51 29.47 66.09 28.75Q68.66 28.03 71.67 28.03L71.67 28.03Q76.38 28.03 80.48 29.46Q84.58 30.88 87.32 33.45L87.32 33.45L85.90 34.50Q83.41 32.25 79.68 31.02Q75.94 29.79 71.67 29.79L71.67 29.79Q68.32 29.79 65.63 30.75Q62.93 31.71 61.18 33.40Q59.44 35.08 58.50 37.30Q57.56 39.53 57.56 42.09L57.56 42.09Q57.56 45.53 58.95 48.29Q60.34 51.05 63.20 52.72Q66.05 54.39 69.96 54.39Z"></path></svg>